<?xml version="1.0" encoding="UTF-8" standalone="no"?><!DOCTYPE svg PUBLIC "-//W3C//DTD SVG 1.1//EN" "http://www.w3.org/Graphics/SVG/1.1/DTD/svg11.dtd"><svg width="100%" height="100%" viewBox="0 0 65 66" version="1.1" xmlns="http://www.w3.org/2000/svg" xmlns:xlink="http://www.w3.org/1999/xlink" xml:space="preserve" xmlns:serif="http://www.serif.com/" style="fill-rule:evenodd;clip-rule:evenodd;stroke-linejoin:round;stroke-miterlimit:1.41421;"><path d="M49.76,64.8l-0.56,0.24l-0.16,0.08l0.72,0l0,-0.32Zm0.8,0l-0.48,-0.08l-0.32,0.4l0.8,-0.32Zm1.84,-0.72l0,-0.32l-0.24,0l0,0.24l0.24,0.08Zm-0.88,-0.32l0.16,0.4l-0.56,-0.08l-0.48,0.72l1.12,-0.64l-0.24,-0.4Zm0.56,0l-0.08,-0.08l-0.24,0l0,0.4l0.32,-0.32Zm3.6,-0.08l0.32,-0.08l0,-0.24l-1.04,0.24l0.72,0.08Zm-2.48,0.4l-0.16,-0.48l-0.32,-0.32l0.4,0.88l0.08,-0.08Zm3.76,-0.8l0.08,-0.56l-1.04,0.88l0.96,-0.32Zm1.12,-0.72l0,-0.32l-0.56,0.4l0.56,-0.08Zm1.44,-1.04l0.32,-0.32l-0.4,0.32l0.08,0Zm-3.6,-3.68l0.08,-0.32l-0.32,0l0,0.32l0.24,0Zm-0.24,-0.48l-0.4,0l0.32,0.16l0.08,-0.16Zm6.4,1.68l1.04,-1.92l-1.04,0.64l0,0.64l-2.08,2.8l0.24,0l1.84,-2.16Zm1.28,-2.64l0.24,-0.32l0.08,-0.16l-0.4,0.64l0.08,-0.16Zm0.48,-2.56l0,-0.4l-0.08,0l-0.08,0.4l0.16,0Zm-10.72,-1.12l-0.4,-0.56l-0.32,0.24l0,0.32l0.72,0Zm-0.96,-0.64l-0.16,0l-0.24,0.08l0.4,0.32l0,-0.4Zm-1.6,-0.08l-0.48,0l0.16,0.16l0.32,-0.16Zm1.12,0.08l0,-0.08l-0.16,-0.24l0,0.4l0.16,-0.08Zm-5.2,-5.92l-0.72,-0.72l0.4,0.72l1.04,0.24l-0.72,-0.24Zm0.32,-0.4l-0.32,-1.68l-0.64,-0.08l0.72,1.52l0.24,0.24Zm-1.44,-2.24l-0.24,-0.48l0,0.88l0.24,-0.4Zm-2.96,-5.92l-0.56,-0.96l-0.24,0l0.8,1.04l0,-0.08Zm21.28,1.44l-1.6,-5.12l-0.8,-1.44l1.44,4.24l0.96,2.32Zm-4.16,-13.44l-0.08,-0.48l-0.88,0.88l0.88,2.88l0,-1.92l0.08,-1.36Zm-17.92,-1.92l0,0.16l0.24,0l0,-0.16l-0.24,0Zm0,-0.16l0.24,0l-0.24,-0.24l0,0.24Zm-2.88,-3.76l-0.08,-0.32l-0.16,0.24l0,0.08l0.24,0Zm-17.6,-5.84l-0.96,0l0.64,0.48l0.32,-0.48Zm1.04,0.64l2.48,-1.44l-2.72,1.36l-0.8,0l0.48,0.32l0.56,-0.24Zm3.12,-1.52l0.4,-0.4l-0.88,0.48l0.48,-0.08Zm-16.48,-6.72l0.32,0l-1.44,-0.24l-5.2,0.56l0.4,0l5.92,-0.32Zm35.52,26.48l-1.92,2.72l0.16,0l-0.64,0.08l0.48,0.4l-0.8,0l0.24,0.24l-0.64,-0.48l0.32,0.48l1.04,0.72l0.08,1.12l2.16,4.48l1.36,0.4l-1.04,-2.4l1.04,1.04l1.76,-0.64l-1.12,0.88l0.16,3.6l1.04,0l0.32,-1.04l0.96,-0.48l-1.84,2.24l1.04,0.24l0,-0.56l0.24,0.56l0.56,3.6l0,-0.48l0.48,1.2l0.8,0.24l-0.8,0.72l0.96,-0.32l2.4,1.12l1.52,2.64l0.32,1.76l2.08,1.28l-0.8,0.24l0.32,0l-0.88,-0.56l-0.4,-0.48l-0.64,0.96l0.32,0.72l0.72,0.64l1.84,-0.8l1.36,0.32l1.92,-0.88l0.08,0.48l0.48,0.24l-0.08,-0.48l-0.4,-0.16l0.48,-0.08l0.4,0.56l-0.24,-0.56l0.88,-1.2l0.32,-2.56l1.12,-2.8l0,1.36l0.96,-10.24l-0.96,-3.2l-1.52,-1.04l1.04,0.32l0,0.16l-1.28,-3.12l-0.32,-1.76l-2.96,-6.88l-1.28,-4.08l0.96,0.4l-0.08,1.44l1.44,0l-0.32,3.76l1.76,3.52l-1.36,-3.52l0,-1.76l0.56,-0.64l-0.96,-1.76l-2.48,-4l-2.8,-7.28l-1.2,-6.72l-0.96,-0.64l0,-0.8l0.64,0.96l0,-1.76l-4.72,-1.04l-0.56,0.48l0,3.76l-0.96,0.08l-0.72,-2l-22.48,-2l-1.04,-2.8l-22,-0.96l-0.24,1.36l1.84,1.84l-0.4,1.6l0.64,0.56l-1.52,1.76l2.24,-0.56l1.04,-1.28l-0.32,-1.04l0.96,1.12l0.4,-1.44l0.48,0.56l-0.4,0.48l1.04,0.72l-2.56,0.88l3.68,-0.48l1.44,0.16l0.8,-1.04l0.8,0.08l0,0.48l1.6,-0.48l0.64,0.4l0.32,0.96l-1.12,-0.56l0,0.56l-0.4,-0.56l-0.56,0.48l-1.44,-0.32l3.84,1.36l2.88,1.6l-0.32,-1.04l-0.72,-0.16l0.72,-0.4l0.56,0.48l1.12,-0.48l0.24,0.4l-1.6,0.72l1.36,0.8l0.64,-0.32l0.08,1.28l0.8,-0.24l-0.56,0.32l-1.92,-1.36l2.72,2.72l0.32,0.72l-0.32,1.28l-0.72,-1.84l0.48,1.36l0.24,0.48l2.88,-0.32l1.28,-0.64l-0.16,0.48l3.28,-1.52l1.12,0.16l0.16,-0.16l0,-0.32l-0.96,-0.4l0.08,-0.32l0.88,0.32l-0.48,-0.56l1.76,-0.64l0.32,0.48l1.36,-0.32l2.88,1.76l1.12,2l1.28,0.64l-0.16,1.28l1.52,1.12l1.52,2.48l2.24,0l0.56,1.92l0.72,0.88l0,1.04l-0.64,-0.08l0.64,0.8l-0.4,2.64l-1.68,5.52l1.04,2.08l0,-0.48l-0.64,-1.04l1.28,1.2l0.8,-1.6l-1.2,-0.64l0.48,-0.32l-0.32,0l0,-0.48l1.28,0.56l0.08,1.36l0.64,0l0,-1.04l0.4,0l0.32,1.04Zm13.68,6.24l1.12,0.96l0.4,1.2l-0.72,2.88l-1.44,-0.72l-1.76,-1.92l2.4,-2.4Z" style="fill:#f5f5f5;fill-rule:nonzero;"/></svg>