<?xml version="1.0" encoding="UTF-8" standalone="no"?><!DOCTYPE svg PUBLIC "-//W3C//DTD SVG 1.1//EN" "http://www.w3.org/Graphics/SVG/1.1/DTD/svg11.dtd"><svg width="100%" height="100%" viewBox="0 0 488 68" version="1.1" xmlns="http://www.w3.org/2000/svg" xmlns:xlink="http://www.w3.org/1999/xlink" xml:space="preserve" xmlns:serif="http://www.serif.com/" style="fill-rule:evenodd;clip-rule:evenodd;stroke-linecap:round;stroke-linejoin:round;stroke-miterlimit:1.5;"><path d="M484,4.6c0,-0.331 -0.269,-0.6 -0.6,-0.6l-478.8,0c-0.331,0 -0.6,0.269 -0.6,0.6l0,58.8c0,0.331 0.269,0.6 0.6,0.6l478.8,0c0.331,0 0.6,-0.269 0.6,-0.6l0,-58.8Z" style="fill:none;stroke:#000;stroke-width:8px;"/><g><g><clipPath id="_clip1"><rect x="433.799" y="32.974" width="31.445" height="12.797"/></clipPath><g clip-path="url(#_clip1)"><path d="M461.966,29.822c0,7.559 -5.651,13.687 -12.621,13.687c-6.97,0 -12.621,-6.128 -12.621,-13.687l25.242,0Z" style="fill:none;stroke:#000;stroke-width:3.48px;stroke-linecap:square;"/></g><path d="M456.562,31.261c0,4.662 -3.231,8.441 -7.217,8.441c-3.986,0 -7.217,-3.779 -7.217,-8.441l14.434,0Zm-14.434,-8.336c0,-4.662 3.231,-8.441 7.217,-8.441c3.986,0 7.217,3.779 7.217,8.441l-7.059,0l7.059,0l0,8.336l-14.434,0l0,-8.336l0,0Z"/></g><rect x="449.345" y="44.82" width="0.176" height="6.957" style="fill:none;stroke:#000;stroke-width:3.48px;stroke-linecap:square;"/></g></svg>